<svg xmlns="http://www.w3.org/2000/svg" xmlns:xlink="http://www.w3.org/1999/xlink" width="426" zoomAndPan="magnify" viewBox="0 0 319.5 94.499997" height="126" preserveAspectRatio="xMidYMid meet" version="1.0"><defs><g/><clipPath id="0012db0cdb"><path d="M 5 9.230469 L 57 9.230469 L 57 70.46875 L 5 70.46875 Z M 5 9.230469 " clip-rule="nonzero"/></clipPath></defs><g clip-path="url(#0012db0cdb)"><path fill="#000000" d="M 43.972656 9.230469 L 18.453125 9.230469 C 11.417969 9.230469 5.695312 14.953125 5.695312 21.988281 L 5.695312 47.503906 C 5.695312 54.539062 11.417969 60.261719 18.453125 60.261719 L 18.539062 60.261719 C 17.910156 60.898438 17.332031 61.582031 16.816406 62.320312 C 15.726562 63.878906 15.597656 65.816406 16.472656 67.496094 C 17.429688 69.328125 19.378906 70.46875 21.554688 70.46875 L 40.867188 70.46875 C 43.042969 70.46875 44.992188 69.328125 45.945312 67.496094 C 46.820312 65.8125 46.695312 63.878906 45.601562 62.316406 C 45.085938 61.582031 44.507812 60.894531 43.882812 60.261719 L 43.964844 60.261719 C 51 60.261719 56.722656 54.539062 56.722656 47.503906 L 56.722656 21.988281 C 56.722656 14.953125 51 9.230469 43.964844 9.230469 Z M 41.425781 65.132812 C 41.40625 65.179688 41.25 65.367188 40.867188 65.367188 L 21.558594 65.367188 C 21.234375 65.367188 21.070312 65.230469 21.019531 65.230469 C 21.015625 65.230469 21.011719 65.230469 21.011719 65.230469 C 23.164062 62.164062 27.070312 60.261719 31.214844 60.261719 C 35.359375 60.261719 39.277344 62.167969 41.425781 65.128906 Z M 51.625 47.503906 C 51.625 51.726562 48.191406 55.160156 43.972656 55.160156 L 18.453125 55.160156 C 14.234375 55.160156 10.800781 51.726562 10.800781 47.503906 L 10.800781 21.988281 C 10.800781 17.765625 14.234375 14.332031 18.453125 14.332031 L 43.972656 14.332031 C 48.191406 14.332031 51.625 17.765625 51.625 21.988281 Z M 31.210938 21.988281 C 24.175781 21.988281 18.453125 27.710938 18.453125 34.746094 C 18.453125 41.78125 24.175781 47.503906 31.210938 47.503906 C 38.246094 47.503906 43.972656 41.78125 43.972656 34.746094 C 43.972656 27.710938 38.246094 21.988281 31.210938 21.988281 Z M 31.210938 42.402344 C 26.992188 42.402344 23.558594 38.96875 23.558594 34.746094 C 23.558594 30.527344 26.992188 27.089844 31.210938 27.089844 C 35.433594 27.089844 38.867188 30.527344 38.867188 34.746094 C 38.867188 38.96875 35.433594 42.402344 31.210938 42.402344 Z M 31.210938 42.402344 " fill-opacity="1" fill-rule="nonzero"/></g><g fill="#000000" fill-opacity="1"><g transform="translate(67.500371, 58.13688)"><g><path d="M 2.578125 0 L 2.578125 -33.328125 L 10.578125 -33.328125 L 10.578125 -20.640625 L 10.671875 -20.59375 L 21.296875 -33.328125 L 31.03125 -33.328125 L 19.515625 -20.5 L 31.453125 0 L 21.8125 0 L 14.09375 -14.5625 L 10.578125 -10.8125 L 10.578125 0 Z M 2.578125 0 "/></g></g></g><g fill="#000000" fill-opacity="1"><g transform="translate(99.189314, 58.13688)"><g><path d="M 5.625 -27.25 C 4.375 -27.25 3.359375 -27.617188 2.578125 -28.359375 C 1.796875 -29.109375 1.40625 -30.09375 1.40625 -31.3125 C 1.40625 -32.5625 1.796875 -33.5625 2.578125 -34.3125 C 3.359375 -35.0625 4.375 -35.4375 5.625 -35.4375 C 6.894531 -35.4375 7.921875 -35.0625 8.703125 -34.3125 C 9.484375 -33.5625 9.875 -32.5625 9.875 -31.3125 C 9.875 -30.09375 9.484375 -29.109375 8.703125 -28.359375 C 7.921875 -27.617188 6.894531 -27.25 5.625 -27.25 Z M 2.0625 0 L 2.0625 -23.96875 L 9.171875 -23.96875 L 9.171875 0 Z M 2.0625 0 "/></g></g></g><g fill="#000000" fill-opacity="1"><g transform="translate(110.470015, 58.13688)"><g><path d="M 14.046875 0.9375 C 11.171875 0.9375 8.898438 0.140625 7.234375 -1.453125 C 5.566406 -3.046875 4.734375 -5.195312 4.734375 -7.90625 L 4.734375 -18.53125 L 0.234375 -18.53125 L 0.234375 -23.96875 L 4.734375 -23.96875 L 4.734375 -30.5625 L 11.890625 -32.109375 L 11.890625 -23.96875 L 21.390625 -23.96875 L 21.390625 -18.53125 L 11.890625 -18.53125 L 11.890625 -9.03125 C 11.890625 -7.71875 12.25 -6.6875 12.96875 -5.9375 C 13.6875 -5.195312 14.578125 -4.828125 15.640625 -4.828125 C 17.753906 -4.828125 19.375 -5.851562 20.5 -7.90625 L 22.65625 -3.421875 C 21.8125 -2.078125 20.601562 -1.015625 19.03125 -0.234375 C 17.457031 0.546875 15.796875 0.9375 14.046875 0.9375 Z M 14.046875 0.9375 "/></g></g></g><g fill="#000000" fill-opacity="1"><g transform="translate(133.218654, 58.13688)"><g><path d="M 14.375 0.9375 C 11.71875 0.9375 9.390625 0.40625 7.390625 -0.65625 C 5.398438 -1.71875 3.847656 -3.222656 2.734375 -5.171875 C 1.628906 -7.117188 1.078125 -9.390625 1.078125 -11.984375 C 1.078125 -14.609375 1.628906 -16.882812 2.734375 -18.8125 C 3.847656 -20.75 5.398438 -22.25 7.390625 -23.3125 C 9.390625 -24.375 11.71875 -24.90625 14.375 -24.90625 C 17.050781 -24.90625 19.390625 -24.375 21.390625 -23.3125 C 23.390625 -22.25 24.941406 -20.75 26.046875 -18.8125 C 27.160156 -16.882812 27.71875 -14.609375 27.71875 -11.984375 C 27.71875 -9.390625 27.160156 -7.117188 26.046875 -5.171875 C 24.941406 -3.222656 23.390625 -1.71875 21.390625 -0.65625 C 19.390625 0.40625 17.050781 0.9375 14.375 0.9375 Z M 14.375 -5.015625 C 16.3125 -5.015625 17.835938 -5.632812 18.953125 -6.875 C 20.078125 -8.125 20.640625 -9.828125 20.640625 -11.984375 C 20.640625 -14.140625 20.078125 -15.835938 18.953125 -17.078125 C 17.835938 -18.328125 16.3125 -18.953125 14.375 -18.953125 C 12.46875 -18.953125 10.941406 -18.328125 9.796875 -17.078125 C 8.660156 -15.835938 8.09375 -14.140625 8.09375 -11.984375 C 8.09375 -9.828125 8.660156 -8.125 9.796875 -6.875 C 10.941406 -5.632812 12.46875 -5.015625 14.375 -5.015625 Z M 14.375 -5.015625 "/></g></g></g><g fill="#000000" fill-opacity="1"><g transform="translate(161.958704, 58.13688)"><g><path d="M 1.875 9.828125 L 1.875 -23.96875 L 7.859375 -23.96875 L 8.9375 -19.375 L 8.984375 -19.375 C 10.703125 -22.90625 13.5 -24.671875 17.375 -24.671875 C 19.457031 -24.671875 21.300781 -24.140625 22.90625 -23.078125 C 24.519531 -22.015625 25.78125 -20.539062 26.6875 -18.65625 C 27.59375 -16.769531 28.046875 -14.546875 28.046875 -11.984375 C 28.046875 -9.453125 27.59375 -7.234375 26.6875 -5.328125 C 25.78125 -3.429688 24.519531 -1.953125 22.90625 -0.890625 C 21.300781 0.171875 19.457031 0.703125 17.375 0.703125 C 13.5625 0.703125 10.796875 -1.0625 9.078125 -4.59375 L 9.03125 -4.59375 L 9.03125 9.828125 Z M 14.796875 -5.390625 C 16.578125 -5.390625 18.035156 -6.019531 19.171875 -7.28125 C 20.304688 -8.539062 20.875 -10.109375 20.875 -11.984375 C 20.875 -13.921875 20.304688 -15.507812 19.171875 -16.75 C 18.035156 -18 16.578125 -18.625 14.796875 -18.625 C 13.046875 -18.625 11.597656 -17.992188 10.453125 -16.734375 C 9.316406 -15.472656 8.75 -13.890625 8.75 -11.984375 C 8.75 -10.109375 9.316406 -8.539062 10.453125 -7.28125 C 11.597656 -6.019531 13.046875 -5.390625 14.796875 -5.390625 Z M 14.796875 -5.390625 "/></g></g></g><g fill="#000000" fill-opacity="1"><g transform="translate(191.07322, 58.13688)"><g><path d="M 9.265625 0.703125 C 6.773438 0.703125 4.722656 0.078125 3.109375 -1.171875 C 1.503906 -2.421875 0.703125 -4.070312 0.703125 -6.125 C 0.703125 -8.1875 1.585938 -9.921875 3.359375 -11.328125 C 5.140625 -12.734375 7.828125 -13.625 11.421875 -14 L 16.0625 -14.5625 C 16.625 -14.625 17.070312 -14.800781 17.40625 -15.09375 C 17.75 -15.394531 17.921875 -15.796875 17.921875 -16.296875 C 17.921875 -17.316406 17.515625 -18.140625 16.703125 -18.765625 C 15.898438 -19.390625 14.859375 -19.703125 13.578125 -19.703125 C 12.140625 -19.703125 10.953125 -19.257812 10.015625 -18.375 C 9.078125 -17.488281 8.546875 -16.453125 8.421875 -15.265625 L 1.453125 -16.34375 C 1.609375 -17.988281 2.191406 -19.457031 3.203125 -20.75 C 4.222656 -22.050781 5.601562 -23.066406 7.34375 -23.796875 C 9.09375 -24.535156 11.109375 -24.90625 13.390625 -24.90625 C 16.910156 -24.90625 19.71875 -24.035156 21.8125 -22.296875 C 23.90625 -20.566406 24.953125 -18.207031 24.953125 -15.21875 L 24.953125 -5.9375 C 24.953125 -4.789062 25.359375 -4.21875 26.171875 -4.21875 C 26.859375 -4.21875 27.484375 -4.578125 28.046875 -5.296875 L 29.71875 -1.5 C 29.007812 -0.78125 28.082031 -0.234375 26.9375 0.140625 C 25.800781 0.515625 24.6875 0.703125 23.59375 0.703125 C 22.15625 0.703125 20.921875 0.3125 19.890625 -0.46875 C 18.859375 -1.25 18.265625 -2.1875 18.109375 -3.28125 L 18.015625 -4.125 L 17.96875 -4.125 C 17.195312 -2.6875 16.0625 -1.519531 14.5625 -0.625 C 13.0625 0.257812 11.296875 0.703125 9.265625 0.703125 Z M 11.984375 -4.21875 C 13.671875 -4.21875 15.054688 -4.738281 16.140625 -5.78125 C 17.234375 -6.820312 17.78125 -8.15625 17.78125 -9.78125 L 17.78125 -10.765625 L 13.203125 -10.25 C 11.203125 -10.03125 9.8125 -9.625 9.03125 -9.03125 C 8.25 -8.4375 7.859375 -7.75 7.859375 -6.96875 C 7.859375 -6.164062 8.25 -5.503906 9.03125 -4.984375 C 9.8125 -4.472656 10.796875 -4.21875 11.984375 -4.21875 Z M 11.984375 -4.21875 "/></g></g></g><g fill="#000000" fill-opacity="1"><g transform="translate(220.796234, 58.13688)"><g><path d="M 17.5625 -24.671875 C 20.019531 -24.671875 21.953125 -23.953125 23.359375 -22.515625 C 24.765625 -21.078125 25.46875 -19.082031 25.46875 -16.53125 L 25.46875 0 L 18.296875 0 L 18.296875 -14.328125 C 18.296875 -15.703125 17.9375 -16.773438 17.21875 -17.546875 C 16.507812 -18.328125 15.53125 -18.71875 14.28125 -18.71875 C 12.75 -18.71875 11.488281 -18.21875 10.5 -17.21875 C 9.519531 -16.226562 9.03125 -14.90625 9.03125 -13.25 L 9.03125 0 L 1.875 0 L 1.875 -23.96875 L 7.90625 -23.96875 L 8.984375 -19.609375 L 9.03125 -19.609375 C 9.90625 -21.234375 11.066406 -22.484375 12.515625 -23.359375 C 13.972656 -24.234375 15.65625 -24.671875 17.5625 -24.671875 Z M 17.5625 -24.671875 "/></g></g></g><g fill="#000000" fill-opacity="1"><g transform="translate(247.523534, 58.13688)"><g><path d="M 14.046875 0.9375 C 11.171875 0.9375 8.898438 0.140625 7.234375 -1.453125 C 5.566406 -3.046875 4.734375 -5.195312 4.734375 -7.90625 L 4.734375 -18.53125 L 0.234375 -18.53125 L 0.234375 -23.96875 L 4.734375 -23.96875 L 4.734375 -30.5625 L 11.890625 -32.109375 L 11.890625 -23.96875 L 21.390625 -23.96875 L 21.390625 -18.53125 L 11.890625 -18.53125 L 11.890625 -9.03125 C 11.890625 -7.71875 12.25 -6.6875 12.96875 -5.9375 C 13.6875 -5.195312 14.578125 -4.828125 15.640625 -4.828125 C 17.753906 -4.828125 19.375 -5.851562 20.5 -7.90625 L 22.65625 -3.421875 C 21.8125 -2.078125 20.601562 -1.015625 19.03125 -0.234375 C 17.457031 0.546875 15.796875 0.9375 14.046875 0.9375 Z M 14.046875 0.9375 "/></g></g></g><g fill="#000000" fill-opacity="1"><g transform="translate(270.272182, 58.13688)"><g><path d="M 14.375 0.9375 C 11.71875 0.9375 9.390625 0.40625 7.390625 -0.65625 C 5.398438 -1.71875 3.847656 -3.222656 2.734375 -5.171875 C 1.628906 -7.117188 1.078125 -9.390625 1.078125 -11.984375 C 1.078125 -14.609375 1.628906 -16.882812 2.734375 -18.8125 C 3.847656 -20.75 5.398438 -22.25 7.390625 -23.3125 C 9.390625 -24.375 11.71875 -24.90625 14.375 -24.90625 C 17.050781 -24.90625 19.390625 -24.375 21.390625 -23.3125 C 23.390625 -22.25 24.941406 -20.75 26.046875 -18.8125 C 27.160156 -16.882812 27.71875 -14.609375 27.71875 -11.984375 C 27.71875 -9.390625 27.160156 -7.117188 26.046875 -5.171875 C 24.941406 -3.222656 23.390625 -1.71875 21.390625 -0.65625 C 19.390625 0.40625 17.050781 0.9375 14.375 0.9375 Z M 14.375 -5.015625 C 16.3125 -5.015625 17.835938 -5.632812 18.953125 -6.875 C 20.078125 -8.125 20.640625 -9.828125 20.640625 -11.984375 C 20.640625 -14.140625 20.078125 -15.835938 18.953125 -17.078125 C 17.835938 -18.328125 16.3125 -18.953125 14.375 -18.953125 C 12.46875 -18.953125 10.941406 -18.328125 9.796875 -17.078125 C 8.660156 -15.835938 8.09375 -14.140625 8.09375 -11.984375 C 8.09375 -9.828125 8.660156 -8.125 9.796875 -6.875 C 10.941406 -5.632812 12.46875 -5.015625 14.375 -5.015625 Z M 14.375 -5.015625 "/></g></g></g></svg>